<?xml version="1.0" encoding="UTF-8" standalone="no"?>
<!-- Created with Inkscape (http://www.inkscape.org/) -->
<svg
   xmlns:dc="http://purl.org/dc/elements/1.1/"
   xmlns:cc="http://web.resource.org/cc/"
   xmlns:rdf="http://www.w3.org/1999/02/22-rdf-syntax-ns#"
   xmlns:svg="http://www.w3.org/2000/svg"
   xmlns="http://www.w3.org/2000/svg"
   xmlns:sodipodi="http://sodipodi.sourceforge.net/DTD/sodipodi-0.dtd"
   xmlns:inkscape="http://www.inkscape.org/namespaces/inkscape"
   width="640px"
   height="480px"
   id="svg1872"
   sodipodi:version="0.32"
   inkscape:version="0.44"
   sodipodi:docbase="/home/okreylos/Projects/Documentation"
   sodipodi:docname="VruiLogo.svg"
   inkscape:export-filename="/home/okreylos/Projects/Documentation/VruiLogo.png"
   inkscape:export-xdpi="90"
   inkscape:export-ydpi="90">
  <defs
     id="defs1874" />
  <sodipodi:namedview
     id="base"
     pagecolor="#ffffff"
     bordercolor="#666666"
     borderopacity="1.0"
     inkscape:pageopacity="0.0"
     inkscape:pageshadow="2"
     inkscape:zoom="1.9229167"
     inkscape:cx="320"
     inkscape:cy="240"
     inkscape:current-layer="layer1"
     inkscape:document-units="px"
     showgrid="true"
     gridspacingx="2px"
     gridspacingy="2px"
     inkscape:grid-bbox="false"
     inkscape:grid-points="true"
     gridtolerance="10000"
     inkscape:window-width="1920"
     inkscape:window-height="1130"
     inkscape:window-x="0"
     inkscape:window-y="0" />
  <metadata
     id="metadata1877">
    <rdf:RDF>
      <cc:Work
         rdf:about="">
        <dc:format>image/svg+xml</dc:format>
        <dc:type
           rdf:resource="http://purl.org/dc/dcmitype/StillImage" />
      </cc:Work>
    </rdf:RDF>
  </metadata>
  <g
     id="layer1"
     inkscape:label="Layer 1"
     inkscape:groupmode="layer">
    <path
       style="fill:none;fill-rule:evenodd;stroke:black;stroke-width:2;stroke-linecap:butt;stroke-linejoin:miter;stroke-opacity:1;marker-mid:none;stroke-miterlimit:4;stroke-dasharray:none"
       d="M 80,40 C 140,80 200,160 252,200 C 260,320 252,360 252,360 C 200,380 152,380 152,380"
       id="path1880"
       sodipodi:nodetypes="cccc" />
    <path
       style="fill:none;fill-rule:evenodd;stroke:black;stroke-width:2;stroke-linecap:butt;stroke-linejoin:miter;stroke-opacity:1;marker-mid:none;stroke-miterlimit:4;stroke-dasharray:none"
       d="M 120,60 C 160,48 220,48 260,60 C 302.83529,72.850588 360,72 400,60"
       id="path1884"
       sodipodi:nodetypes="csc" />
    <g
       id="g2779"
       transform="matrix(0.965926,0.258819,-0.258819,0.965926,42.96345,-35.95713)"
       inkscape:transform-center-x="11.59107"
       inkscape:transform-center-y="-3.10582">
      <path
         d="M 244 120 A 24 16 0 1 1  196,120 A 24 16 0 1 1  244 120 z"
         sodipodi:ry="16"
         sodipodi:rx="24"
         sodipodi:cy="120"
         sodipodi:cx="220"
         id="path1888"
         style="opacity:1;fill:#007f00;fill-opacity:1;stroke:black;stroke-width:1;stroke-miterlimit:4;stroke-dasharray:none;stroke-dashoffset:0;stroke-opacity:1"
         sodipodi:type="arc" />
      <path
         d="M 240 120 A 8 8 0 1 1  224,120 A 8 8 0 1 1  240 120 z"
         sodipodi:ry="8"
         sodipodi:rx="8"
         sodipodi:cy="120"
         sodipodi:cx="232"
         id="path2777"
         style="opacity:1;fill:#7f0000;fill-opacity:1;stroke:black;stroke-width:1;stroke-miterlimit:4;stroke-dasharray:none;stroke-dashoffset:0;stroke-opacity:1"
         sodipodi:type="arc" />
    </g>
    <g
       id="g2783"
       transform="matrix(-0.965926,0.258819,0.258819,0.965926,477.0366,-35.95713)"
       inkscape:transform-center-x="-11.59104"
       inkscape:transform-center-y="-3.10582">
      <path
         d="M 244 120 A 24 16 0 1 1  196,120 A 24 16 0 1 1  244 120 z"
         sodipodi:ry="16"
         sodipodi:rx="24"
         sodipodi:cy="120"
         sodipodi:cx="220"
         id="path2785"
         style="opacity:1;fill:#007f00;fill-opacity:1;stroke:black;stroke-width:1;stroke-miterlimit:4;stroke-dasharray:none;stroke-dashoffset:0;stroke-opacity:1"
         sodipodi:type="arc" />
      <path
         d="M 240 120 A 8 8 0 1 1  224,120 A 8 8 0 1 1  240 120 z"
         sodipodi:ry="8"
         sodipodi:rx="8"
         sodipodi:cy="120"
         sodipodi:cx="232"
         id="path2787"
         style="opacity:1;fill:#7f0000;fill-opacity:1;stroke:black;stroke-width:1;stroke-miterlimit:4;stroke-dasharray:none;stroke-dashoffset:0;stroke-opacity:1"
         sodipodi:type="arc" />
    </g>
    <g
       id="g4555"
       transform="translate(100,-118)">
      <g
         id="g3661">
        <path
           style="fill:none;fill-opacity:0.75;fill-rule:evenodd;stroke:black;stroke-width:2;stroke-linecap:butt;stroke-linejoin:miter;stroke-miterlimit:4;stroke-dasharray:none;stroke-opacity:1"
           d="M 76,240 C 116,220 148,240 160,240 C 172,240 204,220 244,240"
           id="path1883"
           sodipodi:nodetypes="czc" />
        <path
           style="fill:none;fill-opacity:0.75;fill-rule:evenodd;stroke:black;stroke-width:2;stroke-linecap:butt;stroke-linejoin:miter;stroke-miterlimit:4;stroke-dasharray:none;stroke-opacity:1"
           d="M 80,244 C 80,260 80,272 92,280 C 104,288 128,288 140,280 C 152,272 154,264 158,248"
           id="path1885"
           sodipodi:nodetypes="cszc" />
        <path
           style="fill:none;fill-opacity:0.75;fill-rule:evenodd;stroke:black;stroke-width:2;stroke-linecap:butt;stroke-linejoin:miter;stroke-miterlimit:4;stroke-dasharray:none;stroke-opacity:1"
           d="M 240,244 C 240,260 240,272 228,280 C 216,288 192,288 180,280 C 168,272 166,264 162,248"
           id="path1887"
           sodipodi:nodetypes="cszc" />
      </g>
      <path
         sodipodi:nodetypes="csss"
         id="path3666"
         d="M 88,248 C 88,228 146,236 150,244 C 158,260 140,280 120,280 C 96,280 88,276 88,248 z "
         style="fill:maroon;fill-opacity:0.50196078;fill-rule:evenodd;stroke:black;stroke-width:1;stroke-linecap:butt;stroke-linejoin:miter;stroke-miterlimit:4;stroke-dasharray:none;stroke-opacity:1" />
      <path
         sodipodi:nodetypes="csss"
         id="path4553"
         d="M 232,248 C 232,228 174,236 170,244 C 162,260 180,280 200,280 C 224,280 232,276 232,248 z "
         style="fill:navy;fill-opacity:0.50196078;fill-rule:evenodd;stroke:black;stroke-width:1;stroke-linecap:butt;stroke-linejoin:miter;stroke-miterlimit:4;stroke-dasharray:none;stroke-opacity:1" />
    </g>
    <path
       style="fill:none;fill-rule:evenodd;stroke:black;stroke-width:2;stroke-linecap:butt;stroke-linejoin:miter;marker-mid:none;stroke-miterlimit:4;stroke-dasharray:none;stroke-opacity:1"
       d="M 440,40 C 380,80 320,160 268,200 C 260,320 268,360 268,360 C 320,380 368,380 368,380"
       id="path4563"
       sodipodi:nodetypes="cccc" />
  </g>
</svg>
